<svg xmlns="http://www.w3.org/2000/svg" width="28" height="24">
  <ellipse cx="14" cy="16" rx="11" ry="6" fill="#7a5a32" stroke="#5e4423" stroke-width="1.5"/>
  <ellipse cx="14" cy="15" rx="8" ry="4" fill="#9a7240" opacity="0.8"/>
  <circle cx="10" cy="15" r="1.6" fill="#c79a55"/>
  <circle cx="17" cy="17" r="1.4" fill="#c79a55"/>
  <g fill="#fff3a0" stroke="#ffd23c" stroke-width="0.6">
    <path d="M14 3 L15.4 7 L19 8 L15.4 9 L14 13 L12.6 9 L9 8 L12.6 7 Z"/>
    <path d="M22 9 L22.8 11 L25 11.6 L22.8 12.2 L22 14 L21.2 12.2 L19 11.6 L21.2 11 Z"/>
    <path d="M6 8 L6.7 10 L9 10.5 L6.7 11 L6 13 L5.3 11 L3 10.5 L5.3 10 Z"/>
  </g>
</svg>
