<svg xmlns="http://www.w3.org/2000/svg" width="256" height="32">
  <!-- 0: grass light (slime ring) -->
  <rect x="0" y="0" width="32" height="32" fill="#8ecf63"/>
  <rect x="5" y="7" width="3" height="3" fill="#76b54e"/>
  <rect x="21" y="13" width="3" height="3" fill="#76b54e"/>
  <rect x="11" y="24" width="3" height="3" fill="#76b54e"/>
  <rect x="26" y="26" width="3" height="3" fill="#9edd75"/>
  <!-- 1: grass mid (bat ring) -->
  <rect x="32" y="0" width="32" height="32" fill="#6cab49"/>
  <rect x="38" y="6" width="3" height="3" fill="#578c3a"/>
  <rect x="54" y="15" width="3" height="3" fill="#578c3a"/>
  <rect x="42" y="25" width="3" height="3" fill="#578c3a"/>
  <!-- 2: grass dark (elite ring) -->
  <rect x="64" y="0" width="32" height="32" fill="#4f8a37"/>
  <rect x="70" y="8" width="3" height="3" fill="#3e6f2b"/>
  <rect x="86" y="14" width="3" height="3" fill="#3e6f2b"/>
  <rect x="74" y="24" width="3" height="3" fill="#3e6f2b"/>
  <!-- 3: village floor -->
  <rect x="96" y="0" width="32" height="32" fill="#dcc28c"/>
  <rect x="101" y="9" width="4" height="3" fill="#c4a96f"/>
  <rect x="116" y="18" width="4" height="3" fill="#c4a96f"/>
  <rect x="106" y="25" width="4" height="3" fill="#cdb37a"/>
  <!-- 4: path -->
  <rect x="128" y="0" width="32" height="32" fill="#c9a361"/>
  <rect x="133" y="8" width="3" height="2" fill="#b08b4e"/>
  <rect x="148" y="16" width="3" height="2" fill="#b08b4e"/>
  <rect x="138" y="25" width="3" height="2" fill="#b08b4e"/>
  <!-- 5: water -->
  <rect x="160" y="0" width="32" height="32" fill="#4a77d4"/>
  <rect x="165" y="9" width="9" height="2" fill="#6f97e6"/>
  <rect x="178" y="20" width="9" height="2" fill="#6f97e6"/>
  <rect x="168" y="27" width="7" height="2" fill="#3a62b5"/>
  <!-- 6: mountain -->
  <rect x="192" y="0" width="32" height="32" fill="#5f636e"/>
  <path d="M192 32 L208 6 L224 32 Z" fill="#838895"/>
  <path d="M204 13 L208 6 L212 13 L208 16 Z" fill="#e8eaef"/>
  <!-- 7: bridge -->
  <rect x="224" y="0" width="32" height="32" fill="#9a6a3a"/>
  <rect x="224" y="7" width="32" height="2" fill="#7c5229"/>
  <rect x="224" y="16" width="32" height="2" fill="#7c5229"/>
  <rect x="224" y="25" width="32" height="2" fill="#7c5229"/>
  <rect x="224" y="0" width="3" height="32" fill="#b5824c"/>
  <rect x="253" y="0" width="3" height="32" fill="#b5824c"/>
</svg>
